<svg xmlns="http://www.w3.org/2000/svg" width="161" height="79" viewBox="0 0 161 79" fill="none">
  <g clip-path="url(#clip0_726_8)">
    <path d="M42.0936 22.9034C42.6181 22.0415 43.2283 21.2216 43.86 20.4228C47.168 16.1659 51.1932 12.6762 55.7752 9.78575C59.6185 7.35773 63.7294 5.45525 68.0223 3.94168C70.9342 2.91161 73.9103 2.09176 76.94 1.4506C78.5993 1.10374 80.2694 0.819942 81.9501 0.641257C82.8387 0.546659 83.7272 0.473082 84.6051 0.410017C85.8148 0.315419 87.0245 0.231332 88.245 0.147244C88.3092 0.147244 88.3841 0.136733 88.4484 0.136733C90.7608 0.0526461 93.0731 -0.0314412 95.3855 0.0421352C96.8736 0.0841788 98.3617 0.147244 99.8497 0.252353C101.348 0.357462 102.847 0.515126 104.346 0.704322C107.675 1.13527 110.951 1.78695 114.163 2.75395C115.876 3.26898 117.578 3.8576 119.184 4.64591C124.547 7.27364 129.611 10.3638 134.236 14.1162C141.109 19.6975 146.729 26.2984 151.183 33.8873C154.619 39.7418 157.21 45.9433 159.019 52.46C159.608 54.6043 160.09 56.7695 160.464 58.9558C160.55 59.4393 160.603 59.9228 160.678 60.4063C160.689 60.4904 160.7 60.5745 160.7 60.6585C160.7 60.7531 160.657 60.8162 160.55 60.8267C160.443 60.8372 160.346 60.8372 160.239 60.8372C157.071 60.8372 153.902 60.8372 150.733 60.8372C150.626 60.8372 150.53 60.8372 150.422 60.8267C150.294 60.8162 150.251 60.7637 150.273 60.627C150.433 59.639 150.455 58.651 150.422 57.6629C150.38 56.2335 150.166 54.8145 149.877 53.4165C149.502 51.6402 148.999 49.8954 148.356 48.1926C147.821 46.7736 147.168 45.3967 146.515 44.0303C144.438 39.6788 141.997 35.5375 139.139 31.6484C136.505 28.0642 133.551 24.7533 130.243 21.7577C123.305 15.4932 115.351 10.963 106.327 8.26167C104.003 7.56795 101.638 7.01087 99.2502 6.61145C98.0726 6.41175 96.8843 6.24357 95.6853 6.17C94.6469 6.10693 93.5977 6.04386 92.5593 5.97029C90.1291 5.78109 87.699 5.76007 85.2688 5.78109C83.9521 5.7916 82.6353 5.85467 81.3185 5.95978C80.3336 6.03335 79.338 6.09642 78.3531 6.20153C77.2183 6.32766 76.0835 6.47481 74.9487 6.6535C73.4393 6.88474 71.9512 7.16853 70.4631 7.49437C64.3396 8.8713 58.5265 11.0576 53.1309 14.2529C49.7694 16.2394 46.6648 18.5413 43.8921 21.2742C43.314 21.8418 42.768 22.4514 42.2006 23.04C42.0936 23.0295 42.0507 23.0085 42.0936 22.9034Z" fill="white"/>
    <path d="M34.2041 35.9579C34.0221 36.5991 33.8401 37.2507 33.6474 37.8919C32.352 42.2224 31.0567 46.5529 29.7506 50.8729C29.5365 51.5771 29.3117 52.2813 29.1939 53.0171C28.9049 54.8145 29.044 56.5698 29.8148 58.241C29.9861 58.6089 30.1681 58.9663 30.425 59.2921C30.607 59.5234 30.6177 59.7126 30.5107 59.9858C30.1788 60.8162 29.8684 61.6466 29.5579 62.4769C28.1234 66.2503 26.6781 70.0133 25.2436 73.7867C25.2115 73.8813 25.1686 73.9759 25.1258 74.06C24.8475 73.8182 25.0188 73.5239 25.0295 73.2401C25.083 72.5884 25.1258 71.9368 25.1794 71.2851C25.265 70.2971 25.3613 69.309 25.4577 68.3315C25.5433 67.4171 25.629 66.4921 25.7146 65.5777C25.7467 65.2623 25.7682 64.947 25.7789 64.6212C25.7789 64.6001 25.7467 64.5686 25.736 64.5371C25.6076 64.5581 25.554 64.6737 25.4791 64.7578C22.8134 67.7744 20.1478 70.8016 17.4821 73.8182C16.3259 75.1216 15.1804 76.4354 14.0242 77.7388C13.9707 77.8018 13.9065 77.8544 13.8422 77.9175C13.7352 77.9385 13.6709 77.9069 13.7031 77.7808C13.778 77.6337 13.8422 77.476 13.9172 77.3288C16.8184 71.6214 19.7195 65.9245 22.6207 60.2171C22.7064 60.0489 22.7813 59.8912 22.8563 59.7336C22.7706 59.6075 22.6636 59.6495 22.5672 59.6495C22.0748 59.681 21.5823 59.7126 21.0791 59.7546C20.0086 59.8387 18.9273 59.9333 17.8568 60.0174C16.7434 60.1015 15.6408 60.175 14.5274 60.2591C13.5746 60.3327 12.6218 60.3958 11.6583 60.4693C11.5941 60.4693 11.5191 60.4693 11.4549 60.4693C11.2408 60.4588 10.9946 60.6375 10.834 60.3642C11.3371 60.112 11.8403 59.8597 12.3435 59.6074C14.7629 58.4197 17.1716 57.232 19.5911 56.0443C19.848 55.9181 20.1157 55.834 20.4154 55.8025C21.3147 55.7079 22.1497 55.4136 22.8991 54.9091C23.7876 54.2994 24.3871 53.4796 24.719 52.4705C24.8261 52.1447 24.9652 51.8504 25.1258 51.5561C28.0484 46.4057 30.9603 41.2449 33.8722 36.0945C33.9364 35.9789 34.0114 35.8633 34.0863 35.7477C34.3004 35.7372 34.2148 35.8633 34.2041 35.9579Z" fill="white"/>
    <path d="M37.6085 50.0004C37.5121 50.2947 37.5442 50.4734 37.5442 50.6521C37.555 51.8293 37.5764 53.0065 37.5871 54.1837C37.5871 54.3204 37.5871 54.457 37.5871 54.5831C37.5764 54.7513 37.5121 54.8249 37.3301 54.8249C36.6664 54.8354 35.9919 54.8249 35.3282 54.8249C35.1676 54.8249 35.1141 54.7618 35.1034 54.6147C35.0927 54.478 35.1034 54.3414 35.1034 54.2153C35.1355 53.3113 35.1676 52.3969 35.189 51.4929C35.2426 49.8743 35.2212 48.2661 35.1676 46.6474C35.1462 45.9747 35.1248 45.302 35.1141 44.6293C35.1034 44.3245 35.1355 44.293 35.4138 44.2824C36.0348 44.2614 36.645 44.2404 37.2659 44.2194C37.4693 44.2089 37.5871 44.293 37.662 44.4716C37.7155 44.5978 37.7584 44.7239 37.8012 44.85C38.3579 46.2795 38.9038 47.709 39.4605 49.1385C39.5462 49.3592 39.6104 49.5905 39.771 49.7691C39.8245 49.8217 39.8995 49.8427 39.9423 49.7691C40.0279 49.6115 40.1136 49.4433 40.1778 49.2646C40.788 47.7616 41.3875 46.269 41.987 44.766C42.2118 44.1879 42.2118 44.1984 42.8006 44.2509C43.1967 44.2824 43.5821 44.2824 43.9782 44.2299C44.6099 44.1458 44.6313 44.1773 44.6206 44.7765C44.5885 46.1008 44.5671 47.4357 44.5349 48.7601C44.5242 49.3697 44.5135 49.9689 44.5349 50.5785C44.5778 51.8083 44.6099 53.0275 44.6313 54.2573C44.642 54.8354 44.642 54.8354 44.0318 54.8354C43.5393 54.8354 43.0362 54.8354 42.5437 54.8354C42.4581 54.8354 42.3724 54.8354 42.2868 54.8354C42.0727 54.8249 42.0084 54.7618 41.9977 54.5621C41.987 54.4255 41.9977 54.2888 41.9977 54.1627C42.0191 53.2062 42.0513 52.2497 42.0727 51.2932C42.0834 50.8728 42.0834 50.4524 42.0941 50.0319C42.0941 50.0004 42.0834 49.9689 42.062 49.9583C41.9977 49.9268 41.9656 49.9689 41.9442 50.0214C41.7943 50.4103 41.6445 50.8097 41.5053 51.2091C41.1306 52.2918 40.7559 53.3744 40.3812 54.4465C40.3598 54.5096 40.3384 54.5726 40.317 54.6357C40.1885 54.9931 40.0707 55.0561 39.696 54.9826C39.5676 54.9615 39.4712 54.909 39.4177 54.7829C39.3535 54.6252 39.2785 54.478 39.225 54.3204C38.7754 53.1011 38.3257 51.8923 37.8761 50.6731C37.8012 50.4839 37.7262 50.2947 37.6085 50.0004Z" fill="white"/>
    <path d="M62.2101 49.3068C62.2101 49.5065 62.2101 49.7062 62.2101 49.9059C62.2315 51.2828 62.253 52.6598 62.2744 54.0472C62.2744 54.1944 62.2851 54.352 62.2744 54.4992C62.2637 54.783 62.2208 54.8355 61.9532 54.8355C61.3216 54.846 60.69 54.846 60.0476 54.8355C59.7586 54.8355 59.6943 54.7725 59.6943 54.4676C59.6943 54.1313 59.705 53.7949 59.7157 53.4586C59.7586 52.2814 59.8335 51.1041 59.8228 49.9269C59.8228 48.4134 59.7586 46.8998 59.7157 45.3862C59.705 45.155 59.6943 44.9132 59.705 44.682C59.705 44.4297 59.7586 44.3772 59.9941 44.3561C60.5187 44.3246 61.0539 44.2931 61.5785 44.1775C61.8569 44.1144 62.0174 44.209 62.1673 44.4507C62.6491 45.2601 63.1629 46.0589 63.6661 46.8577C64.2228 47.7407 64.7794 48.6341 65.3361 49.517C65.4325 49.6747 65.486 49.8954 65.7429 49.9059C65.8928 49.7482 65.8393 49.559 65.8286 49.3804C65.7858 47.9719 65.7322 46.5529 65.6894 45.1445C65.6787 44.9447 65.6894 44.745 65.7001 44.5453C65.7108 44.4297 65.7751 44.3561 65.9035 44.3561C66.6208 44.3351 67.3381 44.3036 68.0553 44.2826C68.1838 44.2826 68.248 44.3561 68.2587 44.4612C68.2694 44.5979 68.2694 44.7345 68.2694 44.8607C68.2373 46.1745 68.1838 47.4779 68.1624 48.7917C68.141 50.032 68.1517 51.2828 68.141 52.5231C68.141 53.1328 68.141 53.7319 68.141 54.3415C68.141 54.4256 68.141 54.5097 68.1303 54.5938C68.1196 54.7409 68.066 54.804 67.9055 54.8145C67.5094 54.846 67.124 54.8776 66.7278 54.846C66.5244 54.825 66.321 54.7935 66.1176 54.783C65.9571 54.7725 65.8607 54.6989 65.7858 54.5833C65.7001 54.4571 65.6145 54.331 65.5395 54.2049C64.5653 52.6808 63.5804 51.1672 62.6062 49.6431C62.5206 49.5065 62.4242 49.3804 62.3279 49.2437C62.2744 49.2752 62.2422 49.2858 62.2101 49.3068Z" fill="white"/>
    <path d="M117.247 49.2015C117.161 49.4748 117.194 49.664 117.194 49.8426C117.215 51.2721 117.236 52.7016 117.258 54.1311C117.258 54.2993 117.258 54.4674 117.247 54.6356C117.236 54.7512 117.172 54.8143 117.054 54.8353C117.001 54.8458 116.947 54.8458 116.904 54.8458C116.284 54.8458 115.673 54.8458 115.052 54.8458C114.742 54.8458 114.678 54.7828 114.678 54.499C114.678 54.1311 114.688 53.7632 114.71 53.3848C114.753 52.155 114.817 50.9358 114.817 49.706C114.817 48.2555 114.742 46.8155 114.71 45.365C114.699 45.1127 114.699 44.8605 114.699 44.6082C114.699 44.4611 114.774 44.398 114.913 44.377C114.977 44.3665 115.052 44.3665 115.117 44.3665C115.609 44.3454 116.112 44.2929 116.594 44.1983C116.851 44.1457 117.012 44.2403 117.14 44.4611C117.536 45.1232 117.954 45.7854 118.371 46.4476C119.013 47.4777 119.667 48.5078 120.309 49.5378C120.394 49.685 120.48 49.8321 120.619 49.9372C120.662 49.9688 120.78 49.9372 120.78 49.8847C120.801 49.748 120.823 49.6219 120.812 49.4853C120.812 49.0438 120.801 48.6129 120.791 48.1714C120.748 47.1308 120.705 46.0902 120.673 45.0497C120.673 44.9971 120.673 44.9446 120.673 44.9025C120.673 44.4085 120.673 44.398 121.176 44.377C121.775 44.3559 122.375 44.3349 122.974 44.3244C123.189 44.3244 123.242 44.377 123.253 44.5977C123.264 44.7343 123.253 44.871 123.253 44.9971C123.135 48.0768 123.103 51.146 123.124 54.2257C123.124 54.3098 123.124 54.3939 123.124 54.4779C123.114 54.8353 123.103 54.8563 122.76 54.8879C122.193 54.9404 121.636 54.8984 121.069 54.8353C120.962 54.8248 120.876 54.7828 120.812 54.6882C120.726 54.562 120.641 54.4359 120.555 54.3098C119.581 52.7857 118.596 51.2721 117.622 49.748C117.515 49.5694 117.397 49.4222 117.247 49.2015Z" fill="white"/>
    <path d="M9.73155 61.7725C9.53885 62.4557 9.34615 63.1284 9.15345 63.8116C8.80017 65.0519 8.43618 66.2922 8.14713 67.5535C8.04008 68.037 7.97584 68.51 8.02937 69.004C8.0936 69.6242 8.11501 70.2443 8.14713 70.8645C8.23277 72.3045 8.30771 73.7444 8.39336 75.195C8.41477 75.5313 8.44689 75.8676 8.4683 76.204C8.479 76.2986 8.51112 76.4037 8.44689 76.4878C8.42547 76.4878 8.41477 76.4983 8.39336 76.4983C8.38265 76.4983 8.36124 76.4773 8.35054 76.4668C8.31842 76.4247 8.2863 76.3827 8.25419 76.3512C7.70821 75.5523 7.17293 74.764 6.62695 73.9652C6.61625 73.9547 6.60554 73.9442 6.59483 73.9336C6.58413 73.9231 6.56272 73.9126 6.5306 73.8916C6.03815 74.2279 5.58852 74.6379 5.11748 75.0163C4.65714 75.3841 4.1968 75.7731 3.73647 76.1409C3.26542 76.5298 2.79438 76.9187 2.31263 77.2971C1.8523 77.6755 1.39196 78.0434 0.920919 78.4323C0.82457 78.2957 0.899508 78.1906 0.931625 78.096C1.64889 76.225 2.35546 74.3541 3.07272 72.4831C3.23331 72.0627 3.39389 71.6318 3.55447 71.2113C3.64012 70.9906 3.64012 70.9801 3.44742 70.8434C2.59098 70.2023 1.72383 69.5716 0.856686 68.941C0.599754 68.7518 0.332117 68.5521 0.0751848 68.3629C0.0216573 68.3208 -0.0425757 68.2893 -0.0211647 68.1737C0.289295 68.2052 0.61046 68.2157 0.931625 68.1842C2.09852 68.0896 3.16907 67.7322 4.17539 67.1751C5.38511 66.5129 6.41284 65.63 7.32281 64.621C8.07219 63.7906 8.73593 62.8972 9.33544 61.9512C9.42109 61.8251 9.50673 61.6989 9.59237 61.5728C9.81719 61.5518 9.77437 61.6674 9.73155 61.7725Z" fill="white"/>
    <path d="M135.949 52.1237C135.981 52.8384 136.013 53.6267 136.056 54.4151C136.077 54.825 135.96 54.846 135.606 54.7619C135.307 54.6988 135.018 54.6042 134.718 54.5096C134.547 54.4571 134.386 54.4676 134.225 54.5307C133.926 54.6463 133.615 54.7514 133.305 54.825C132.534 55.0247 131.752 55.0667 130.971 54.8986C130.243 54.7514 129.633 54.4045 129.097 53.9C128.38 53.2168 127.898 52.3864 127.652 51.4405C127.278 49.99 127.331 48.5395 127.824 47.1205C128.091 46.3637 128.509 45.7015 129.087 45.1234C130.489 43.7255 132.802 43.6624 134.3 44.8081C134.664 45.0919 134.964 45.4387 135.2 45.8276C135.285 45.9643 135.307 46.1009 135.232 46.2586C134.953 46.8367 134.589 47.3622 134.161 47.8562C134.043 47.9824 133.958 47.9719 133.819 47.8352C133.669 47.6776 133.53 47.5094 133.358 47.3517C132.984 47.0049 132.545 46.8052 132.02 46.7946C131.41 46.7736 130.928 47.0154 130.553 47.4884C130.254 47.8668 130.072 48.3082 129.997 48.7707C129.9 49.4013 129.89 50.0425 130.072 50.6732C130.104 50.7888 130.147 50.8939 130.189 51.0095C130.65 52.0921 131.624 52.3444 132.427 52.1972C132.737 52.1447 133.026 52.0501 133.305 51.9345C133.433 51.8819 133.487 51.7978 133.476 51.6612C133.444 51.3774 133.422 51.0936 133.401 50.8098C133.369 50.3368 133.326 49.8743 133.305 49.4013C133.294 49.1806 133.358 49.1281 133.572 49.1281C133.594 49.1281 133.604 49.1281 133.626 49.1281C134.311 49.2121 134.985 49.2121 135.671 49.1386C135.938 49.107 136.003 49.1806 136.003 49.4539C136.003 49.7902 135.992 50.1266 135.97 50.4629C135.949 51.0095 135.938 51.5245 135.949 52.1237Z" fill="white"/>
    <path d="M49.2023 49.5379C49.2023 47.9613 49.0953 46.3846 49.0632 44.7975C49.0525 44.2614 49.0311 44.2614 49.577 44.272C51.2364 44.314 52.8957 44.314 54.5551 44.272C54.6729 44.272 54.7906 44.272 54.9191 44.2825C55.1332 44.3035 55.2188 44.3876 55.2509 44.5978C55.2938 44.8501 55.3152 45.1023 55.3366 45.3441C55.3687 45.7645 55.4008 46.1849 55.4222 46.6054C55.4329 46.7525 55.358 46.8261 55.2081 46.8156C55.0368 46.8156 54.8655 46.8156 54.6943 46.7841C53.9342 46.679 53.1527 46.6895 52.3926 46.6579C52.2427 46.6474 52.0821 46.6579 51.9322 46.6895C51.7717 46.7105 51.686 46.7946 51.6753 46.9627C51.6646 47.2255 51.6539 47.4988 51.686 47.7721C51.7181 48.1189 51.8573 48.2451 52.232 48.2346C52.8315 48.2241 53.431 48.203 54.0305 48.182C54.3517 48.1715 54.6836 48.1295 55.0047 48.1084C55.1867 48.0979 55.2617 48.182 55.2402 48.3502C55.1546 49.086 55.0904 49.8217 55.069 50.5575C55.069 50.7362 55.0047 50.7992 54.812 50.7782C53.9984 50.6836 53.1741 50.6731 52.3498 50.6731C51.5683 50.6731 51.6753 50.7572 51.6753 51.3353C51.6753 51.5035 51.6753 51.6716 51.6967 51.8398C51.7181 52.0605 51.8466 52.2077 52.0607 52.2708C52.2748 52.3338 52.4889 52.3654 52.7137 52.3654C53.4524 52.3864 54.1804 52.3128 54.9191 52.2392C55.0261 52.2287 55.1225 52.2077 55.2295 52.2077C55.5614 52.1867 55.6471 52.2602 55.6363 52.5546C55.5935 53.2378 55.5293 53.9315 55.3794 54.6042C55.3152 54.909 55.2402 54.9405 54.9191 54.9195C54.4802 54.8985 54.0305 54.8775 53.5809 54.867C52.2427 54.8459 50.9152 54.8459 49.577 54.8249C49.0632 54.8249 49.0525 54.8144 49.0739 54.3204C49.106 53.3639 49.1381 52.4074 49.1702 51.4509C49.1702 50.8203 49.1809 50.1791 49.2023 49.5379Z" fill="white"/>
    <path d="M118.35 78.8633C118.21 78.8213 118.146 78.8108 118.093 78.7793C117.568 78.527 117.054 78.2642 116.53 78.033C116.315 77.9384 116.198 77.8228 116.23 77.581C116.241 77.4864 116.23 77.3813 116.23 77.2762C116.23 74.7431 116.23 72.1994 116.23 69.6663C116.23 69.5822 116.23 69.4981 116.23 69.414C116.241 69.0356 116.241 69.0251 116.626 69.0251C117.161 69.0251 117.686 69.0251 118.221 69.0251C118.435 69.0251 118.457 69.0462 118.457 69.2669C118.457 69.5402 118.457 69.8029 118.457 70.0762C118.457 70.1498 118.424 70.2549 118.51 70.3075C118.606 70.3705 118.671 70.2864 118.735 70.2444C119.056 70.0237 119.377 69.8029 119.709 69.5822C120.234 69.2354 120.801 68.9516 121.422 68.7939C125.008 67.8794 127.439 70.318 127.92 72.704C128.199 74.0704 128.006 75.3737 127.385 76.6245C126.967 77.4654 126.4 78.1907 125.747 78.8739C125.586 79.042 125.576 79.042 125.351 78.9264C124.655 78.527 123.959 78.1276 123.274 77.7282C123.146 77.6546 123.135 77.5915 123.242 77.4864C123.338 77.3918 123.445 77.2972 123.542 77.2026C124.013 76.7401 124.484 76.2777 124.955 75.8047C125.683 75.0584 126.057 74.1545 126.165 73.1454C126.229 72.5253 126.25 71.9051 126.09 71.2955C125.865 70.4336 125.319 69.866 124.452 69.6558C123.039 69.3089 121.722 69.5402 120.619 70.5177C119.463 71.5478 118.778 72.8406 118.478 74.3331C118.392 74.7641 118.371 75.195 118.371 75.6365C118.382 76.5299 118.371 77.4234 118.371 78.3063C118.35 78.4744 118.35 78.6426 118.35 78.8633Z" fill="white"/>
    <path d="M76.8231 50.5048C76.866 51.7661 76.8981 52.8172 76.9302 53.8788C76.9302 54.026 76.9302 54.1836 76.9302 54.3308C76.9302 54.7723 77.0051 54.8248 76.4163 54.8668C75.8382 54.8984 75.2494 54.8774 74.6713 54.8774C74.5857 54.8774 74.5001 54.8563 74.4251 54.8353C74.3074 54.8143 74.2538 54.7302 74.2431 54.6251C74.2324 54.5095 74.2324 54.3939 74.2324 54.2677C74.2645 53.1115 74.2859 51.9448 74.3288 50.7886C74.3716 49.4958 74.3502 48.2029 74.2966 46.9101C74.2859 46.7104 74.2645 46.6894 74.0504 46.6999C73.6543 46.7314 73.2689 46.7734 72.8728 46.7945C72.7229 46.805 72.5624 46.805 72.4125 46.805C72.2198 46.805 72.177 46.7524 72.1984 46.5632C72.2091 46.4161 72.2305 46.2584 72.2626 46.1113C72.3482 45.7118 72.3911 45.3124 72.4125 44.913C72.4232 44.7974 72.4232 44.6818 72.4339 44.5662C72.466 44.3034 72.5302 44.2508 72.7979 44.2719C73.6329 44.3454 74.4679 44.3875 75.3137 44.398C76.2772 44.4085 77.23 44.3139 78.1827 44.2298C78.9 44.1667 78.9 44.1037 78.8465 44.8605C78.8144 45.3335 78.8679 45.7959 78.9 46.2689C78.9321 46.7209 78.9214 46.7209 78.4718 46.7104C78.0757 46.6999 77.6903 46.6788 77.2942 46.6473C76.8338 46.6053 76.8553 46.6053 76.8553 47.0678C76.8553 47.5197 76.8446 47.9717 76.8446 48.4237C76.8124 49.2015 76.8231 49.9477 76.8231 50.5048Z" fill="white"/>
    <path d="M107.666 49.4328C107.644 48.7601 107.623 47.9612 107.612 47.1729C107.591 46.3005 107.58 45.4281 107.569 44.5557C107.569 44.335 107.623 44.2929 107.848 44.2929C108.554 44.3139 109.25 44.3139 109.957 44.2929C110.235 44.2824 110.267 44.3245 110.267 44.6188C110.256 45.3545 110.256 46.1008 110.213 46.8366C110.149 47.8246 110.128 48.8231 110.149 49.8112C110.171 51.2406 110.203 52.6701 110.224 54.0996C110.224 54.2678 110.224 54.436 110.213 54.6041C110.213 54.7197 110.139 54.7828 110.021 54.8038C109.882 54.8249 109.753 54.8564 109.614 54.8669C109.079 54.8774 108.554 54.8669 108.019 54.8669C107.955 54.8669 107.88 54.8564 107.815 54.8459C107.548 54.7933 107.484 54.7197 107.494 54.436C107.537 53.2903 107.58 52.1551 107.623 51.0094C107.623 50.5259 107.644 50.0319 107.666 49.4328Z" fill="white"/>
    <path d="M6.3484 63.4755C6.40193 64.8629 5.23503 66.2399 3.56497 66.2294C2.02338 66.2294 0.802956 65.0206 0.781545 63.5175C0.760134 62.1091 1.90562 60.7532 3.57568 60.7532C5.23503 60.7637 6.36982 62.1196 6.3484 63.4755Z" fill="white"/>
    <path d="M18.1247 51.924C18.1032 50.5365 19.2808 49.2122 20.9081 49.2122C22.4604 49.2122 23.7022 50.4419 23.7022 51.966C23.7022 53.385 22.5353 54.6778 20.9188 54.6883C19.2916 54.6778 18.0925 53.364 18.1247 51.924Z" fill="white"/>
    <path d="M113.8 78.7373C113.725 78.7162 113.66 78.7057 113.596 78.6847C113.029 78.4009 112.472 78.1066 111.915 77.8333C111.733 77.7492 111.669 77.6336 111.68 77.4339C111.691 77.066 111.68 76.6981 111.68 76.3303C111.68 73.9653 111.68 71.5898 111.68 69.2249C111.68 69.0882 111.68 68.9516 111.68 68.8255C111.691 68.6573 111.723 68.6047 111.883 68.6047C112.461 68.6047 113.05 68.6047 113.628 68.6047C113.789 68.6047 113.832 68.6573 113.842 68.815C113.853 68.9306 113.842 69.0462 113.842 69.1723C113.842 72.1995 113.842 75.2161 113.842 78.2432C113.842 78.3904 113.874 78.5586 113.8 78.7373Z" fill="white"/>
    <path d="M147.04 73.7129C147.04 75.2055 147.04 76.698 147.04 78.2011C147.04 78.3377 147.04 78.4744 147.04 78.6005C147.04 78.7371 146.976 78.7687 146.836 78.7056C146.826 78.6951 146.804 78.6951 146.794 78.6846C146.237 78.4008 145.67 78.1065 145.113 77.8332C144.952 77.7596 144.867 77.665 144.888 77.4863C144.899 77.3812 144.888 77.2866 144.888 77.1815C144.888 74.5117 144.888 71.842 144.888 69.1722C144.888 68.5521 144.824 68.6046 145.466 68.6046C145.926 68.6046 146.387 68.6046 146.847 68.6046C146.965 68.6046 147.04 68.6572 147.04 68.7833C147.04 68.9199 147.04 69.0566 147.04 69.1827C147.04 70.6858 147.04 72.1993 147.04 73.7129Z" fill="white"/>
    <path d="M41.9766 32.1003C41.5591 31.9111 41.1416 31.7114 40.7241 31.5327C40.2424 31.3225 39.7499 31.1543 39.2253 31.0387C38.4652 30.881 37.8015 31.0702 37.202 31.5011C36.8594 31.7534 36.549 32.0372 36.2599 32.3525C35.9066 32.7625 35.5533 33.1724 35.2001 33.5823C35.1037 33.6033 35.0609 33.5928 35.093 33.4772C35.2857 33.0673 35.4891 32.6573 35.6711 32.2474C35.8852 31.7744 36.0672 31.2804 36.1636 30.7654C36.292 30.1452 36.1743 29.5671 35.8424 29.0311C35.6069 28.6527 35.3071 28.3269 34.9753 28.0431C34.547 27.6647 34.0974 27.2968 33.6585 26.9184C33.6478 26.8238 33.6585 26.7712 33.7762 26.8133C34.1938 27.0025 34.6113 27.1812 35.0288 27.3598C35.4142 27.528 35.821 27.6647 36.2385 27.7593C37.0521 27.9485 37.7908 27.8013 38.4545 27.3073C38.8399 27.0235 39.1718 26.6872 39.4823 26.3403C39.7285 26.067 39.9747 25.7832 40.2209 25.5099C40.328 25.4994 40.4029 25.5204 40.3494 25.6466C40.2209 25.9409 40.0925 26.2247 39.964 26.519C39.7713 26.9709 39.5893 27.4124 39.4823 27.8959C39.3003 28.6632 39.4394 29.3569 39.9105 29.9981C40.2209 30.4185 40.6063 30.7864 41.0024 31.1228C41.3557 31.4171 41.709 31.7009 42.073 31.9952C42.1051 32.1003 42.0837 32.1423 41.9766 32.1003Z" fill="white"/>
    <path d="M147.393 64.5055C147.2 64.5265 147.05 64.4319 146.954 64.2217C146.783 63.8538 146.579 63.507 146.397 63.1496C146.087 62.5505 145.605 62.151 144.963 61.9303C144.716 61.8462 144.481 61.7621 144.245 61.657C143.967 61.5414 143.774 61.3522 143.667 61.0579C143.528 60.6795 143.346 60.3222 143.175 59.9543C143.143 59.8807 143.1 59.8071 143.068 59.723C142.961 59.4603 143.046 59.3446 143.335 59.3551C143.432 59.3551 143.539 59.3762 143.635 59.3972C144.192 59.5549 144.749 59.723 145.284 59.9543C145.498 60.0489 145.712 60.1645 145.915 60.2906C146.279 60.5113 146.536 60.8057 146.686 61.2051C146.836 61.6045 146.975 61.9934 147.114 62.3928C147.275 62.8658 147.436 63.3493 147.66 63.8013C147.725 63.9274 147.757 64.0535 147.768 64.1902C147.757 64.4529 147.703 64.5055 147.393 64.5055Z" fill="white"/>
    <path d="M114.196 64.5054C114.003 64.5264 113.853 64.4318 113.757 64.2216C113.596 63.8748 113.393 63.5384 113.221 63.1916C112.9 62.5504 112.397 62.1405 111.723 61.8987C111.53 61.8357 111.337 61.7621 111.145 61.6885C110.813 61.5624 110.577 61.3522 110.449 61.0053C110.31 60.5954 110.095 60.2065 109.913 59.807C109.742 59.4181 109.828 59.313 110.235 59.3551C110.267 59.3551 110.299 59.3551 110.331 59.3656C111.102 59.5968 111.873 59.807 112.579 60.2065C113.029 60.4587 113.35 60.8056 113.521 61.2996C113.66 61.699 113.8 62.0879 113.939 62.4873C114.089 62.9288 114.239 63.3808 114.453 63.8012C114.517 63.9273 114.549 64.0535 114.56 64.1901C114.56 64.4529 114.517 64.5054 114.196 64.5054Z" fill="white"/>
    <path d="M25.0298 73.24C25.0298 73.4187 25.0405 73.6079 25.0405 73.7866C25.0405 73.8917 25.0405 73.9863 25.1261 74.0598C25.1154 74.228 25.0619 74.3752 24.9548 74.5013C24.912 74.4908 24.9013 74.4908 24.8906 74.4803C24.8799 74.4698 24.8799 74.4487 24.8799 74.4277C24.912 74.0809 24.9334 73.7235 24.9762 73.3766C24.9762 73.3346 25.0083 73.282 25.0298 73.24Z" fill="white"/>
    <path d="M10.8552 60.3536C10.9302 60.4481 11.0265 60.4376 11.1336 60.4376C11.2513 60.4376 11.3691 60.4587 11.4869 60.4587C11.2835 60.5638 11.0694 60.5322 10.8552 60.5427C10.7696 60.5427 10.6304 60.6058 10.6197 60.4692C10.609 60.4166 10.7482 60.343 10.8552 60.3536Z" fill="white"/>
    <path d="M9.73104 61.7725C9.69893 61.6989 9.70963 61.6043 9.61328 61.5518C9.63469 61.3941 9.75245 61.289 9.81669 61.1524C9.8488 61.1103 9.88092 61.1103 9.92374 61.1419C9.90233 61.3626 9.87021 61.5833 9.73104 61.7725Z" fill="white"/>
    <path d="M42.0941 22.9033C42.1262 22.9349 42.1584 22.9769 42.2012 23.0084C42.1369 23.1766 41.9871 23.2712 41.8907 23.4078C41.8051 23.4289 41.7515 23.4184 41.7944 23.3132C41.88 23.1661 41.9442 23.0084 42.0941 22.9033Z" fill="#F0A460"/>
    <path d="M13.7139 77.7703C13.7567 77.8123 13.7995 77.8649 13.853 77.9069C13.7888 78.0751 13.6496 78.1697 13.5319 78.3063C13.4997 78.3484 13.4569 78.3484 13.4248 78.3063C13.4997 78.1171 13.564 77.9279 13.7139 77.7703Z" fill="white"/>
    <path d="M41.7831 23.3132C41.8152 23.3448 41.8473 23.3763 41.8794 23.4078C41.8152 23.555 41.7081 23.6601 41.5797 23.7442C41.5262 23.7021 41.5262 23.6601 41.569 23.6075C41.6332 23.5024 41.676 23.3868 41.7831 23.3132Z" fill="#F5C394"/>
    <path d="M40.3707 25.6678C40.3278 25.6257 40.285 25.5732 40.2422 25.5311C40.2743 25.405 40.3814 25.3314 40.4563 25.2368C40.5526 25.2158 40.6062 25.2368 40.5634 25.3419C40.5098 25.447 40.467 25.5732 40.3707 25.6678Z" fill="#ED9646"/>
    <path d="M33.3688 26.7292C33.2938 26.6872 33.2296 26.6451 33.1654 26.5926C33.1333 26.5715 33.0904 26.5295 33.1333 26.4769C33.144 26.4559 33.1975 26.4559 33.2189 26.4769C33.3045 26.5295 33.3902 26.5821 33.4758 26.6346C33.4651 26.6977 33.4009 26.7082 33.3688 26.7292Z" fill="#F7C89C"/>
    <path d="M33.3691 26.7291C33.3798 26.6661 33.4227 26.645 33.4762 26.624C33.5833 26.6871 33.7224 26.7081 33.7974 26.8132C33.7545 26.8448 33.7224 26.8868 33.6796 26.9183C33.5725 26.8658 33.4655 26.8027 33.3691 26.7291Z" fill="#EFA159"/>
    <path d="M41.9766 32.1002C42.0087 32.0687 42.0408 32.0371 42.0836 32.0056C42.2228 32.0582 42.3513 32.1317 42.4048 32.2894C42.2335 32.2999 42.0943 32.2263 41.9766 32.1002Z" fill="#F2AE71"/>
    <path d="M35.1037 33.4983C35.1358 33.5298 35.1679 33.5614 35.2107 33.6034C35.1893 33.7295 35.0716 33.8031 35.0073 33.9082C34.9645 33.9503 34.9217 33.9503 34.8682 33.9187C34.9217 33.7611 34.9645 33.6034 35.1037 33.4983Z" fill="#F1AF73"/>
    <path d="M40.5631 25.3314C40.531 25.2998 40.4882 25.2578 40.4561 25.2262C40.5203 25.1211 40.5952 25.0265 40.6595 24.9214C40.6916 24.8794 40.7344 24.8794 40.7772 24.9214C40.7451 25.0791 40.6809 25.2262 40.5631 25.3314Z" fill="#F2B379"/>
    <path d="M41.5801 23.6074C41.5801 23.6495 41.5908 23.702 41.5908 23.7441C41.5801 23.7861 41.5694 23.8387 41.5479 23.8807C41.5265 23.9227 41.4837 23.9648 41.4302 23.9333C41.4195 23.9227 41.4088 23.8702 41.4195 23.8492C41.4623 23.7651 41.5158 23.6915 41.5801 23.6074Z" fill="#F9DBBE"/>
    <path d="M34.2037 35.9578C34.1716 35.8842 34.1716 35.7896 34.0967 35.737C34.1288 35.6635 34.1609 35.6004 34.193 35.5268C34.3001 35.5163 34.3429 35.5478 34.3108 35.6529C34.2894 35.7581 34.3001 35.8737 34.2037 35.9578Z" fill="white"/>
    <path d="M34.3111 35.653C34.2683 35.6109 34.2362 35.5689 34.1934 35.5269C34.2255 35.4638 34.2576 35.3902 34.2897 35.3271C34.3861 35.3061 34.4289 35.3271 34.4075 35.4323C34.3968 35.5058 34.3861 35.5899 34.3111 35.653Z" fill="#6E6B89"/>
    <path d="M34.4078 35.4322C34.3864 35.3797 34.3543 35.3376 34.29 35.3271C34.3007 35.2956 34.3115 35.2535 34.3329 35.243C34.365 35.2115 34.4185 35.1905 34.4506 35.1694C34.4613 35.2115 34.4827 35.264 34.472 35.3061C34.472 35.3481 34.4292 35.3797 34.4078 35.4322Z" fill="#A8A3B6"/>
    <path d="M40.7769 24.9213C40.7341 24.9213 40.702 24.9213 40.6592 24.9213C40.6699 24.8897 40.6806 24.8582 40.702 24.8372C40.7341 24.8056 40.7984 24.7636 40.8091 24.7741C40.884 24.8372 40.8412 24.8897 40.7769 24.9213Z" fill="#F9D0AA"/>
    <path d="M9.93518 61.1524C9.90306 61.1524 9.86024 61.1524 9.82812 61.1629C9.84954 61.1209 9.84954 61.0788 9.88165 61.0368C9.90306 61.0052 9.94589 60.9527 9.98871 61.0052C10.0101 61.0263 9.978 61.0893 9.9673 61.1209C9.978 61.1314 9.94589 61.1419 9.93518 61.1524Z" fill="#9B95AA"/>
    <path d="M34.8681 33.9082C34.911 33.9082 34.9538 33.9082 35.0073 33.8977C34.9752 33.9923 34.911 34.0659 34.8039 34.0974C34.7932 34.0343 34.7932 33.9608 34.8681 33.9082Z" fill="white"/>
    <path d="M13.4243 78.3064C13.4564 78.3064 13.4993 78.3064 13.5314 78.3064C13.5207 78.3379 13.51 78.3695 13.4886 78.3905C13.4564 78.4115 13.3815 78.4535 13.3708 78.443C13.3066 78.38 13.3601 78.3379 13.4243 78.3064Z" fill="#9EA6BB"/>
    <path d="M42.5326 32.3315C42.5219 32.3421 42.5112 32.3631 42.5005 32.3631C42.4684 32.3526 42.4363 32.3526 42.4149 32.3315C42.3828 32.2895 42.4042 32.2685 42.447 32.2895C42.4791 32.3 42.5112 32.321 42.5326 32.3315Z" fill="#F3B880"/>
    <path d="M34.8041 34.1079C34.7933 34.1186 34.7716 34.1398 34.7607 34.1505C34.7607 34.1398 34.7607 34.1292 34.7716 34.1292C34.7716 34.1186 34.7824 34.1079 34.8041 34.1079Z" fill="white"/>
    <path d="M160.433 65.7036C157.543 65.7036 154.641 65.7036 151.751 65.7036C148.668 65.7036 145.585 65.7036 142.501 65.7036C142.351 65.7036 142.191 65.7036 142.041 65.6931C141.966 65.6931 141.923 65.6405 141.913 65.5564C141.902 65.4934 141.902 65.4198 141.902 65.3567C141.902 64.5474 141.816 63.7486 141.688 62.9497C141.463 61.5308 141.024 60.1748 140.307 58.903C139.879 58.1357 139.354 57.421 138.744 56.7903C138.647 56.6957 138.562 56.6011 138.401 56.6116C137.684 56.6222 136.967 56.6116 136.239 56.6222C136.057 56.6222 135.971 56.7798 136.057 56.9375C136.121 57.0531 136.217 57.1582 136.303 57.2633C137.127 58.3144 137.909 59.397 138.53 60.5848C138.872 61.247 139.14 61.9407 139.29 62.6659C139.44 63.4437 139.525 64.2321 139.525 65.0204C139.525 65.8192 139.643 65.7036 138.819 65.7036C129.473 65.7036 120.116 65.7036 110.77 65.7036C110.599 65.7036 110.428 65.7036 110.256 65.7036C110.128 65.7036 110.074 65.7772 110.064 65.8928C110.053 66.0084 110.053 66.124 110.064 66.2501C110.085 66.5129 110.01 66.7862 110.107 67.049C110.363 67.1751 110.642 67.112 110.909 67.112C120.223 67.112 129.537 67.112 138.861 67.112C139.033 67.112 139.204 67.112 139.375 67.1226C139.482 67.1226 139.525 67.1961 139.536 67.2907C139.547 67.3748 139.536 67.4589 139.536 67.543C139.536 68.8569 139.536 70.1707 139.536 71.4741C139.536 71.5371 139.568 71.6107 139.472 71.6422C139.333 71.6317 139.279 71.5161 139.204 71.432C138.722 70.9695 138.251 70.5071 137.78 70.0551C137.502 69.7818 137.181 69.5506 136.849 69.3404C135.254 68.3418 133.637 68.3944 132.063 69.3509C131.046 69.9605 130.34 70.8644 129.794 71.905C129.569 72.336 129.505 72.7984 129.537 73.2714C129.58 73.9231 129.826 74.5117 130.169 75.0583C130.693 75.8992 131.378 76.6034 132.181 77.192C132.824 77.665 133.509 78.0749 134.29 78.3167C135.179 78.59 136.046 78.5584 136.892 78.1905C137.266 78.0224 137.62 77.8122 137.952 77.5704C138.412 77.2341 138.808 76.8451 139.193 76.4457C139.279 76.3511 139.343 76.2355 139.472 76.1935C139.568 76.2776 139.536 76.3616 139.536 76.4457C139.536 76.7611 139.547 77.0869 139.536 77.4022C139.525 77.6335 139.589 77.7701 139.825 77.8542C140.403 78.0644 140.97 78.2957 141.538 78.5164C141.602 78.5374 141.666 78.5689 141.731 78.5794C141.806 78.59 141.87 78.5689 141.87 78.4848C141.88 78.3482 141.88 78.2116 141.88 78.0854C141.88 76.9082 141.88 75.731 141.88 74.5538C141.88 72.1993 141.88 69.8449 141.88 67.4904C141.88 67.1015 141.891 67.1015 142.277 67.1015C142.33 67.1015 142.384 67.1015 142.426 67.1015C145.017 67.1015 147.597 67.1015 150.188 67.1015C150.306 67.1015 150.423 67.1015 150.552 67.112C150.648 67.112 150.712 67.1751 150.712 67.2697C150.723 67.3748 150.723 67.4694 150.723 67.5745C150.723 68.3103 150.712 69.0566 150.734 69.7923C150.745 70.0761 150.67 70.2863 150.423 70.423C150.22 70.5386 150.156 70.7173 150.177 70.938C150.188 71.0221 150.177 71.1062 150.177 71.1903C150.188 71.4425 150.241 71.4846 150.498 71.39C150.905 71.2533 151.301 71.1062 151.708 70.959C153.121 70.444 154.588 70.2443 156.097 70.3074C156.633 70.3284 157.104 70.4966 157.51 70.8329C158.035 71.2533 158.056 71.2954 158.046 71.9891C158.046 72.0522 158.046 72.1257 158.046 72.1888C158.035 72.3255 157.971 72.3675 157.842 72.3044C157.457 72.0837 157.05 71.9155 156.611 71.8209C155.787 71.6422 154.952 71.6212 154.117 71.7158C152.565 71.884 151.216 72.4621 150.059 73.4817C149.803 73.7024 149.578 73.9546 149.374 74.2384C148.732 75.1319 148.839 76.246 149.556 77.0238C150.049 77.5599 150.638 77.9488 151.323 78.2011C151.869 78.4008 152.447 78.4954 153.025 78.5269C154.599 78.611 156.097 78.3692 157.478 77.6019C157.553 77.5599 157.628 77.5284 157.703 77.4863C157.885 77.4022 157.992 77.4232 158.003 77.5914C158.024 77.8437 158.174 77.9278 158.378 78.0013C158.827 78.159 159.266 78.3377 159.716 78.5059C159.812 78.5374 159.898 78.611 160.058 78.5689C160.069 78.5164 160.09 78.4638 160.09 78.4218C160.08 76.4878 160.08 74.5538 160.058 72.6198C160.048 72.0837 159.973 71.5476 159.855 71.0221C159.769 70.6122 159.641 70.2128 159.384 69.8659C159.052 69.4139 158.592 69.1301 158.067 68.9409C157.478 68.7307 156.868 68.6572 156.258 68.6256C155.155 68.5626 154.074 68.7938 153.003 68.983C152.886 69.004 152.768 69.025 152.65 69.0461C152.49 69.0671 152.415 69.004 152.415 68.8569C152.404 68.5731 152.404 68.2893 152.404 67.995C152.404 67.7637 152.404 67.522 152.415 67.2907C152.415 67.1961 152.479 67.1331 152.586 67.1331C152.736 67.1226 152.896 67.1226 153.046 67.1226C155.476 67.1226 157.907 67.1226 160.337 67.1226C160.487 67.1226 160.647 67.1226 160.797 67.1226C160.915 67.1226 160.99 67.07 160.99 66.9439C160.99 66.7231 160.99 66.5024 160.99 66.2922C161 65.651 161.065 65.7036 160.433 65.7036ZM138.765 73.1979C138.679 73.4186 138.572 73.6288 138.444 73.8285C137.748 74.9006 136.87 75.8151 135.768 76.4983C135.232 76.8346 134.654 77.0764 134.001 77.1289C133.23 77.192 132.588 76.9608 132.074 76.3932C131.592 75.8571 131.325 75.1529 131.325 74.249C131.336 73.7444 131.539 73.1453 131.924 72.6092C132.128 72.336 132.353 72.0837 132.609 71.863C133.22 71.3374 133.905 70.9275 134.644 70.6017C135.404 70.2653 136.164 70.2548 136.945 70.5176C137.459 70.6858 137.919 70.9275 138.316 71.2849C138.915 71.8314 139.065 72.4411 138.765 73.1979ZM157.896 74.9322C157.757 75.1003 157.596 75.258 157.414 75.3841C156.076 76.3406 154.609 76.9713 152.939 77.1079C152.629 77.1289 152.329 77.1605 152.019 77.192C151.537 77.1815 151.066 77.1395 150.595 76.9923C150.327 76.9082 150.092 76.7821 149.92 76.5508C149.803 76.3932 149.77 76.225 149.845 76.0358C149.942 75.7941 150.07 75.5838 150.231 75.3841C151.087 74.333 152.19 73.6919 153.539 73.4396C154.791 73.2084 155.99 73.3871 157.157 73.839C157.393 73.9336 157.628 74.0387 157.821 74.2174C158.089 74.4487 158.11 74.6799 157.896 74.9322Z" fill="white"/>
    <path d="M91.6288 48.3186C91.4254 47.1098 90.9008 46.0482 90.0229 45.1653C88.4599 43.5887 85.8371 43.6097 84.3062 45.1653C83.6318 45.838 83.1607 46.6263 82.8931 47.5303C82.5612 48.6339 82.5184 49.7481 82.7218 50.8728C82.9252 52.029 83.4283 53.038 84.2634 53.8894C85.8264 55.5186 88.567 55.4976 90.1086 53.8894C90.5796 53.3954 90.965 52.8383 91.2327 52.2181C91.5966 51.3668 91.7465 50.4838 91.7465 49.4433C91.7465 49.1595 91.7037 48.739 91.6288 48.3186ZM88.4492 51.7241C88.0531 52.1341 87.55 52.3233 86.9719 52.2707C86.4687 52.2181 86.0619 51.9974 85.7407 51.619C85.3982 51.2301 85.2055 50.7676 85.1198 50.2631C84.9592 49.3171 85.0984 48.4237 85.6979 47.6354C85.7943 47.5198 85.8906 47.3936 85.9977 47.299C86.6935 46.6579 87.7105 46.6579 88.4064 47.299C88.931 47.7825 89.1879 48.3922 89.2736 49.0754C89.295 49.2225 89.295 49.3802 89.295 49.5274C89.3057 50.3682 89.038 51.104 88.4492 51.7241Z" fill="white"/>
    <path d="M103.297 53.9736C102.944 53.0802 102.569 52.1973 102.216 51.3039C101.948 50.6417 101.905 50.8098 102.398 50.3263C102.858 49.8849 103.179 49.3593 103.297 48.7182C103.415 48.0455 103.447 47.3728 103.318 46.7106C103.104 45.5754 102.408 44.8186 101.306 44.4297C100.867 44.2721 100.406 44.23 99.9354 44.2405C98.8435 44.251 97.7408 44.2826 96.6488 44.3141C96.4775 44.3141 96.3063 44.3456 96.135 44.3772C95.9851 44.4087 95.9316 44.4613 95.9316 44.6189C95.9423 45.0078 95.9637 45.3862 95.9744 45.7751C96.06 47.8458 96.0707 49.9059 95.9744 51.9766C95.9423 52.8174 95.9316 53.6583 95.9102 54.4992C95.9102 54.7514 95.9851 54.825 96.2313 54.8566C96.3491 54.8671 96.4668 54.8776 96.5953 54.8776C96.97 54.8776 97.3447 54.8881 97.7301 54.8776C98.7792 54.846 98.6186 54.9617 98.5865 53.9631C98.5651 53.2904 98.5116 52.6177 98.4688 51.945C98.4581 51.7769 98.4688 51.6087 98.4795 51.4405C98.4902 51.3249 98.5437 51.2513 98.6722 51.2513C98.8756 51.2513 99.079 51.2408 99.2931 51.2513C99.4965 51.2618 99.6464 51.3669 99.732 51.5561C99.7641 51.6297 99.7962 51.7138 99.8284 51.7874C100.107 52.5967 100.385 53.406 100.674 54.2154C100.717 54.3415 100.749 54.4676 100.803 54.6043C100.845 54.7304 100.942 54.7935 101.07 54.8145C101.156 54.825 101.241 54.846 101.327 54.846C101.948 54.846 102.558 54.846 103.179 54.846C103.318 54.846 103.458 54.8355 103.575 54.6884C103.468 54.4782 103.393 54.2259 103.297 53.9736ZM100.781 48.5395C100.674 48.9074 100.428 49.1386 100.053 49.2542C99.5607 49.4014 99.0683 49.3383 98.5865 49.2437C98.4688 49.2227 98.4474 49.1071 98.4474 49.0125C98.4474 48.5395 98.4367 48.077 98.4367 47.604C98.4367 47.3728 98.4367 47.131 98.4581 46.8998C98.4795 46.616 98.5544 46.5424 98.8328 46.5214C98.9719 46.5109 99.1004 46.5214 99.2396 46.5214C99.5179 46.5214 99.7855 46.5319 100.042 46.6265C100.374 46.7421 100.599 46.9523 100.717 47.2677C100.878 47.6776 100.91 48.098 100.781 48.5395Z" fill="white"/>
  </g>
  <defs>
    <clipPath id="clip0_726_8">
      <rect width="161" height="79" fill="white"/>
    </clipPath>
  </defs>
</svg>