<svg xmlns="http://www.w3.org/2000/svg" width="656.508" height="142.215" viewBox="0 0 656.508 142.215"><g id="cavista-logo-2305" transform="translate(19562.098 20136.662)"><g id="Layer_2" data-name="Layer 2" transform="translate(-19388.125 -20110.164)"><g id="Group_2" data-name="Group 2" transform="translate(0 0)"><g id="Group_1" data-name="Group 1"><path id="Path_1" data-name="Path 1" d="M501.457 202.938a23.759 23.759.0 00-9.114-7.2 27.156 27.156.0 00-11.392-2.518 30.552 30.552.0 00-13.011 2.7 29.943 29.943.0 00-9.953 7.375 33.629 33.629.0 00-6.416 10.973 39.328 39.328.0 00-2.278 13.491 37.227 37.227.0 002.159 12.711 31.783 31.783.0 006.235 10.553 29.185 29.185.0 009.953 7.195 32.145 32.145.0 0013.311 2.638 26.458 26.458.0 0012.832-3 27.545 27.545.0 009.354-8.395l9.713 7.315a38.765 38.765.0 01-3.358 3.778 33.745 33.745.0 01-6.355 4.916 45.041 45.041.0 01-9.534 4.318 40.787 40.787.0 01-12.891 1.859 41.9 41.9.0 01-18.167-3.837 44.477 44.477.0 01-25.482-40.052 49.75 49.75.0 013.238-18.167 42.962 42.962.0 019.054-14.39 40.478 40.478.0 0113.97-9.413 46.823 46.823.0 0117.987-3.358A44.052 44.052.0 01497.8 185.67a30.793 30.793.0 0113.251 9.953z" transform="translate(-437.061 -182.432)" fill="#1a1818"/><path id="Path_2" data-name="Path 2" d="M762.407 186.839h13.311l24.943 69.072h.24l25.9-69.072h12.591l-33.456 84.9H795.144z" transform="translate(-603.038 -184.68)" fill="#1a1818"/><path id="Path_3" data-name="Path 3" d="M942.826 186.839h11.512v84.9H942.826z" transform="translate(-695.079 -184.68)" fill="#1a1818"/><path id="Path_4" data-name="Path 4" d="M1008.6 251.744a18.9 18.9.0 007.974 6.9 23.838 23.838.0 0010.013 2.219 20.393 20.393.0 005.876-.9 17.871 17.871.0 005.456-2.7 14.735 14.735.0 004.018-4.438 11.8 11.8.0 001.559-6.115q0-4.916-3.118-7.5a26.96 26.96.0 00-7.734-4.317q-4.618-1.737-10.073-3.358a40.942 40.942.0 01-10.073-4.5 24.63 24.63.0 01-7.735-7.735q-3.12-4.857-3.118-13.131a22.629 22.629.0 016.716-15.589 28.1 28.1.0 018.934-5.816 33.233 33.233.0 0113.131-2.339 45.852 45.852.0 0113.31 1.919 22.884 22.884.0 0111.152 7.794l-9.353 8.515a15.539 15.539.0 00-6.116-5.4 19.362 19.362.0 00-8.993-2.038 21.8 21.8.0 00-7.975 1.259 14.318 14.318.0 00-5.1 3.238 11.425 11.425.0 00-2.7 4.257 13 13 0 00-.78 4.2q0 5.4 3.118 8.274a24.19 24.19.0 007.735 4.677 93.063 93.063.0 0010.073 3.238 43.172 43.172.0 0110.073 4.017 23.46 23.46.0 017.735 6.955q3.117 4.379 3.118 12.051a25.365 25.365.0 01-2.338 11.032 24.468 24.468.0 01-6.3 8.275 27.924 27.924.0 01-9.353 5.156 36.176 36.176.0 01-11.512 1.8 41.87 41.87.0 01-15.47-2.878A25.425 25.425.0 01999.13 259.9z" transform="translate(-723.803 -182.432)" fill="#1a1818"/><path id="Path_5" data-name="Path 5" d="M1159.645 197.631H1132.3V186.839H1198.5v10.792h-27.341V271.74h-11.512z" transform="translate(-791.742 -184.68)" fill="#1a1818"/></g><path id="Path_6" data-name="Path 6" d="M614.214 271.74l28.445-69.918v-.1l.021.052.021-.052v.1l28.445 69.918h13.625l-36.335-84.9H638l-37.414 84.9h13.625z" transform="translate(-520.486 -184.68)" fill="#1a1818"/><path id="Path_7" data-name="Path 7" d="M1263.908 271.74l28.445-69.918v-.1l.021.052.021-.052v.1l28.444 69.918h13.625l-36.335-84.9H1287.7l-37.414 84.9h13.625z" transform="translate(-851.93 -184.68)" fill="#1a1818"/></g></g><g id="Group_139" data-name="Group 139" transform="translate(-19562.098 -20136.662)"><g id="Shapes" transform="translate(0 0)"><path id="Path_8" data-name="Path 8" d="M174.811 128.338a70.983 70.983.0 00-56.163 27.5 60.195 60.195.0 110 87.22 71.107 71.107.0 1056.163-114.717z" transform="translate(-100.649 -128.338)" fill="#1a1818"/><path id="Path_9" data-name="Path 9" d="M141.825 164.428a53.324 53.324.0 00-44.313 23.613 44.961 44.961.0 110 59.527 53.378 53.378.0 1044.313-83.14z" transform="translate(-89.866 -146.749)" fill="#1a1818"/><path id="Path_10" data-name="Path 10" d="M128.9 263.523a29.513 29.513.0 1126.678-42.141 37.918 37.918.0 100 25.256A29.513 29.513.0 01128.9 263.523z" transform="translate(-81.903 -162.903)" fill="#a8102e"/></g></g></g></svg>