<svg width="23" height="23" viewBox="0 0 23 23" fill="none" xmlns="http://www.w3.org/2000/svg">
<g id="Frame" clip-path="url(#clip0_736_615)">
<g id="Group">
<path id="Vector" d="M23 11.4928C23 14.5403 23 17.5806 23 20.6281C23 21.7781 22.2882 22.6981 21.2026 22.9353C20.9941 22.9784 20.7784 22.9928 20.5627 22.9928C14.5233 22.9928 8.4839 22.9928 2.44451 22.9928C0.984995 23 0 22.0225 0 20.5706C0 14.5259 0 8.48125 0 2.43656C0 1.17875 0.747734 0.244375 1.91966 0.0359375C2.09222 0.0071875 2.27915 0 2.45889 0C8.4839 0 14.5161 0 20.5483 0C21.7849 0 22.7052 0.697187 22.9497 1.82562C22.9928 2.02688 23 2.23531 23 2.44375C23 5.45531 23 8.47406 23 11.4928ZM12.6468 20.6856C13.8187 20.6856 14.9403 20.6856 16.105 20.6856C16.105 18.0047 16.105 15.3453 16.105 12.65C17.2626 12.65 18.3914 12.65 19.5274 12.65C19.5274 11.4856 19.5274 10.35 19.5274 9.19281C18.377 9.19281 17.2482 9.19281 16.1266 9.19281C16.1266 8.35906 16.0978 7.54688 16.1338 6.74188C16.1554 6.21 16.5939 5.81469 17.126 5.77156C17.6005 5.74281 18.075 5.75 18.5495 5.75C18.8731 5.75 19.1894 5.75 19.5274 5.75C19.5274 4.58562 19.5274 3.45 19.5274 2.31437C18.4705 2.31437 17.4423 2.28562 16.407 2.32156C14.473 2.37906 12.7762 4.04656 12.6755 5.98C12.6324 6.93594 12.6468 7.89906 12.6396 8.86219C12.6396 8.96281 12.6396 9.07063 12.6396 9.20719C11.8631 9.20719 11.1225 9.20719 10.3748 9.20719C10.3748 10.3716 10.3748 11.5 10.3748 12.6644C11.1369 12.6644 11.8775 12.6644 12.6468 12.6644C12.6468 15.3453 12.6468 18.0047 12.6468 20.6856Z" fill="#F06529"/>
</g>
</g>
<defs>
<clipPath id="clip0_736_615">
<rect width="23" height="23" fill="white"/>
</clipPath>
</defs>
</svg>
