<svg width="23" height="23" viewBox="0 0 23 23" fill="none" xmlns="http://www.w3.org/2000/svg">
<g id="Frame" clip-path="url(#clip0_736_611)">
<path id="Vector" d="M8.04547 0C10.341 0 12.6365 0 14.9319 0C15.0672 0.0135082 15.198 0.0225137 15.3333 0.0360219C16.1992 0.112569 17.0786 0.117071 17.9265 0.283673C20.1678 0.733947 21.7282 2.03074 22.5174 4.20106C22.9008 5.2502 22.9865 6.34886 22.991 7.45204C23 10.0906 23.009 12.7247 22.9819 15.3634C22.9729 16.1964 22.9143 17.0429 22.7565 17.8624C22.3235 20.0642 21.0653 21.6222 18.9457 22.4462C17.9265 22.8424 16.8486 22.9505 15.7663 22.9595C13.3355 22.982 10.9047 23.0045 8.4739 22.9955C7.2743 22.991 6.07469 22.9865 4.89312 22.6983C2.98547 22.2345 1.56939 21.1584 0.72606 19.3753C0.207433 18.2766 0.0495894 17.0969 0.03606 15.8992C0.00900115 13.4137 -0.0180577 10.9282 -1.8457e-05 8.43814C0.00900115 7.3935 0.0721384 6.33986 0.225472 5.30873C0.464491 3.69675 1.24018 2.36394 2.56155 1.37334C3.69351 0.526821 5.00586 0.189115 6.39037 0.0900548C6.94057 0.0540329 7.49528 0.0315192 8.04547 0ZM11.518 20.9783C11.518 20.9648 11.518 20.9558 11.518 20.9422C12.1268 20.9422 12.7357 20.9603 13.34 20.9377C14.6433 20.8927 15.9557 20.9017 17.2455 20.7441C18.9502 20.537 20.1137 19.5734 20.6278 17.9029C20.8623 17.1374 20.9029 16.3404 20.9119 15.548C20.9345 13.5127 20.9661 11.473 20.948 9.43775C20.939 8.22651 20.9074 7.01077 20.7676 5.80854C20.5557 3.96241 19.3831 2.70615 17.5566 2.34593C16.7629 2.18833 15.9331 2.1388 15.1214 2.12529C13.11 2.09377 11.1031 2.09828 9.09175 2.10278C7.93724 2.10728 6.77822 2.09377 5.63724 2.2919C3.88743 2.59808 2.69233 3.70576 2.33606 5.43931C2.18273 6.18677 2.13312 6.96574 2.11508 7.73571C2.07449 9.58634 2.06096 11.437 2.08351 13.2831C2.09704 14.5754 2.13763 15.8767 2.25488 17.1599C2.36763 18.3532 2.91331 19.3618 3.93253 20.0597C4.71724 20.6 5.61469 20.8072 6.54822 20.8387C8.20331 20.9107 9.86292 20.9377 11.518 20.9783Z" fill="#F06529"/>
<path id="Vector_2" d="M5.58791 11.5135C5.57889 8.25804 8.23968 5.60143 11.5093 5.59692C14.7744 5.59692 17.4036 8.21752 17.4261 11.4865C17.4487 14.7375 14.7924 17.4031 11.5183 17.4166C8.26223 17.4301 5.60144 14.7825 5.58791 11.5135ZM11.5003 15.3364C13.6244 15.3409 15.3381 13.6478 15.3471 11.527C15.3561 9.40624 13.6605 7.6907 11.5363 7.67719C9.40321 7.66368 7.68046 9.37022 7.67595 11.5C7.67144 13.6208 9.37615 15.3319 11.5003 15.3364Z" fill="#F06529"/>
<path id="Vector_3" d="M17.6971 3.98941C18.4683 4.00292 19.0636 4.6288 19.041 5.40778C19.023 6.16424 18.4006 6.7541 17.634 6.74509C16.8718 6.73158 16.2675 6.0967 16.2855 5.32222C16.3036 4.56576 16.9305 3.9714 17.6971 3.98941Z" fill="#F06529"/>
</g>
<defs>
<clipPath id="clip0_736_611">
<rect width="23" height="23" fill="white"/>
</clipPath>
</defs>
</svg>
