<svg width="26" height="24" viewBox="0 0 26 24" fill="none" xmlns="http://www.w3.org/2000/svg">
<g id="Frame" clip-path="url(#clip0_736_618)">
<path id="Vector" d="M8.68857 24C8.68457 23.9477 8.67655 23.8969 8.67788 23.8446C8.69258 19.6014 8.7113 15.3581 8.72333 11.1149C8.726 10.108 8.70194 9.09971 8.68991 8.09279C8.68858 8.00308 8.68991 7.91203 8.68991 7.81428C10.4702 7.81428 12.2531 7.81428 14.0467 7.81428C14.0467 8.56679 14.0467 9.31395 14.0467 10.0624C14.0548 10.0651 14.0614 10.0691 14.0695 10.0718C14.0895 10.0424 14.1109 10.0142 14.1309 9.98478C14.4958 9.44383 14.9235 8.96046 15.4381 8.55608C16.117 8.02317 16.8802 7.67905 17.7289 7.52908C18.8409 7.33225 19.9435 7.38313 21.0181 7.7393C22.5163 8.23473 23.5989 9.2162 24.2913 10.6302C24.5893 11.2381 24.7751 11.8835 24.8967 12.5476C25.0157 13.1943 25.0691 13.8451 25.0691 14.5025C25.0678 17.6371 25.0691 20.7717 25.0691 23.9062C25.0691 23.937 25.0664 23.9692 25.0638 24C23.2822 24 21.4992 24 19.7176 24C19.715 23.9477 19.711 23.8955 19.711 23.8433C19.711 21.0435 19.711 18.2437 19.711 15.4438C19.711 14.9939 19.6909 14.5454 19.6147 14.0995C19.5439 13.6924 19.4343 13.2974 19.2405 12.9306C18.9331 12.3481 18.4693 11.9598 17.8318 11.7871C17.4549 11.6853 17.07 11.6652 16.6824 11.7C16.1611 11.7455 15.6853 11.9156 15.2763 12.2517C14.9329 12.5329 14.6522 12.8663 14.4343 13.2546C14.2606 13.5639 14.1376 13.8906 14.0922 14.2454C14.0588 14.5132 14.0507 14.781 14.0507 15.0488C14.0507 17.9852 14.0507 20.9203 14.0494 23.8567C14.0494 23.9049 14.0414 23.9531 14.0374 24.0013C12.2531 24 10.4702 24 8.68857 24Z" fill="#F06529"/>
<path id="Vector_2" d="M0.334704 24C0.333368 23.9518 0.332031 23.9023 0.332031 23.8541C0.332031 18.5584 0.332031 13.2613 0.332031 7.96564C0.332031 7.91743 0.332031 7.86923 0.332031 7.81433C2.12299 7.81433 3.90325 7.81433 5.69019 7.81433C5.6942 7.83575 5.69955 7.85852 5.70088 7.88128C5.70222 7.91208 5.70088 7.94421 5.70088 7.97501C5.70088 13.264 5.70088 18.5543 5.70088 23.8433C5.70088 23.8956 5.70088 23.9478 5.70222 24C3.9126 24 2.12432 24 0.334704 24Z" fill="#F06529"/>
<path id="Vector_3" d="M3.32128 0C3.41751 0.0133899 3.51241 0.0281187 3.60864 0.0415086C4.25151 0.128543 4.8182 0.378933 5.28064 0.843562C5.72303 1.28811 5.96762 1.82504 6.03845 2.44499C6.0839 2.84267 6.07588 3.23901 5.96361 3.62598C5.74976 4.36376 5.2793 4.89132 4.61104 5.24883C4.25017 5.44164 3.85991 5.54073 3.45494 5.5809C3.00586 5.62642 2.55946 5.60768 2.11707 5.50324C1.05051 5.25017 0.259287 4.39456 0.0748458 3.40906C0.0614805 3.33408 0.0534613 3.25776 0.0387594 3.18277C0.0294037 3.13323 0.0133653 3.08369 0 3.03414C0 2.87347 0 2.71279 0 2.55345C0.0133653 2.50792 0.0320768 2.4624 0.0374229 2.41553C0.105586 1.82772 0.344825 1.32158 0.756477 0.897121C1.23897 0.400357 1.83239 0.13256 2.51134 0.0415086C2.60757 0.0281187 2.70247 0.0147289 2.7987 0C2.97245 0 3.1462 0 3.32128 0Z" fill="#F06529"/>
</g>
<defs>
<clipPath id="clip0_736_618">
<rect width="25.0667" height="24" fill="white"/>
</clipPath>
</defs>
</svg>
