<svg xmlns="http://www.w3.org/2000/svg" width="13" height="12" viewBox="0 0 13 12" fill="none">
  <g clip-path="url(#clip0_726_102)">
    <path d="M0 6.67267C0.0231867 6.22294 0.282105 5.81343 0.807669 5.59406C1.34096 5.37102 1.83948 5.46243 2.27229 5.82806C2.93312 6.38747 3.59007 6.95786 4.24703 7.52459C4.36683 7.63062 4.49049 7.733 4.61029 7.83903C4.80737 8.00722 4.96968 7.99625 5.14744 7.80978C6.34929 6.52276 7.55499 5.23574 8.75684 3.94872C9.93936 2.68729 11.118 1.42586 12.3005 0.160783C12.4435 0.0108742 12.5865 -0.0330015 12.7488 0.0218431C12.8995 0.0730314 13.0116 0.204658 13 0.354567C12.9961 0.435006 12.9575 0.522757 12.9111 0.592227C11.5933 2.6032 10.2756 4.61417 8.95779 6.62148C7.92212 8.201 6.88644 9.78053 5.85077 11.3564C5.63823 11.6818 5.34453 11.9048 4.93876 11.9743C4.45571 12.0548 4.04994 11.9085 3.74078 11.5502C2.74762 10.4058 1.76219 9.25768 0.772889 8.1096C0.618312 7.93409 0.467598 7.75493 0.316885 7.57943C0.10434 7.34543 0 7.0712 0 6.67267Z" fill="#F06529"/>
  </g>
  <defs>
    <clipPath id="clip0_726_102">
      <rect width="13" height="12" fill="white"/>
    </clipPath>
  </defs>
</svg>